<?xml version="1.0" standalone="no"?>
<!DOCTYPE svg PUBLIC "-//W3C//DTD SVG 20010904//EN"
 "http://www.w3.org/TR/2001/REC-SVG-20010904/DTD/svg10.dtd">
<svg version="1.0" xmlns="http://www.w3.org/2000/svg"
 width="1697.000000pt" height="1393.000000pt" viewBox="0 0 1697.000000 1393.000000"
 preserveAspectRatio="xMidYMid meet">

<g transform="translate(0.000000,1393.000000) scale(0.100000,-0.100000)"
fill="#000000" stroke="none">
<path d="M1196 13908 c-14 -55 2 -277 30 -413 38 -183 139 -420 252 -590 442
-664 1326 -1120 2367 -1221 213 -21 611 -21 818 0 858 87 1591 400 2083 891
l131 130 -68 -134 c-191 -374 -314 -802 -376 -1301 -25 -206 -25 -744 0 -950
27 -212 52 -355 97 -535 147 -594 407 -1093 760 -1459 284 -294 582 -471 935
-554 101 -24 128 -26 330 -27 190 0 233 3 317 22 342 77 640 246 914 518 692
687 1037 1883 884 3067 -58 450 -203 927 -386 1267 l-45 83 93 -83 c485 -437
1118 -708 1888 -809 209 -28 656 -38 877 -21 1183 95 2169 649 2553 1436 98
200 150 392 166 608 l7 97 -40 0 -40 0 -7 -91 c-41 -537 -350 -1019 -891
-1388 -441 -301 -959 -486 -1590 -568 -112 -14 -210 -18 -495 -18 -379 0 -481
8 -766 61 -267 48 -569 140 -809 244 -115 50 -235 108 -235 113 0 1 44 2 98 3
177 1 404 79 548 187 239 181 326 404 219 561 -14 20 -25 38 -25 40 0 2 41
-14 90 -35 257 -111 575 -190 945 -235 179 -21 602 -29 795 -15 871 66 1555
359 1786 767 57 101 86 250 68 343 l-6 31 -2362 0 -2362 0 -16 -28 c-27 -45
-107 -115 -185 -160 -149 -87 -209 -216 -220 -472 -6 -159 10 -272 57 -401 64
-175 157 -250 254 -204 20 10 76 60 124 113 140 152 220 209 235 167 9 -22
-18 -113 -80 -268 -52 -131 -57 -148 -57 -224 -1 -71 2 -85 23 -114 l24 -33
-39 24 c-116 69 -271 176 -359 247 -111 89 -296 275 -366 368 -215 281 -330
572 -355 893 l-7 92 -40 0 -40 0 7 -87 c15 -192 63 -393 132 -549 l25 -56
-104 97 c-302 281 -615 444 -966 501 -128 21 -355 18 -496 -6 -285 -49 -580
-190 -824 -394 -76 -64 -238 -226 -300 -301 -19 -22 -31 -33 -28 -25 3 8 25
60 48 115 77 184 125 440 117 625 l-3 75 -40 3 -40 3 -1 -148 c-5 -508 -285
-994 -791 -1374 -983 -739 -2591 -878 -3805 -329 -737 333 -1220 871 -1334
1485 -10 53 -17 147 -18 227 l-1 138 -36 0 c-30 0 -38 -4 -43 -22z m7589 -153
c249 -40 497 -148 720 -312 50 -37 153 -130 231 -207 206 -207 354 -414 499
-701 521 -1033 521 -2447 0 -3480 -347 -687 -869 -1126 -1450 -1220 -118 -19
-348 -19 -461 0 -705 121 -1307 732 -1622 1646 -89 258 -148 521 -189 849 -24
191 -24 739 0 930 54 426 145 777 289 1110 52 120 119 253 124 248 2 -2 -2
-24 -7 -48 -20 -89 27 -311 97 -459 47 -102 107 -182 201 -272 160 -152 310
-186 447 -99 25 16 46 28 46 26 0 -2 -13 -33 -30 -69 -112 -247 -204 -622
-247 -1000 -24 -211 -24 -693 0 -904 60 -535 205 -993 413 -1310 70 -105 236
-274 315 -321 108 -63 161 -77 299 -77 113 0 131 3 188 26 103 44 170 89 256
174 304 297 516 865 581 1555 23 241 16 737 -14 955 -36 266 -96 526 -166 721
-19 54 -35 100 -35 102 0 2 15 -7 33 -20 30 -22 40 -23 182 -22 182 1 278 19
392 74 135 66 238 198 238 307 0 46 -4 56 -34 87 -63 65 -173 95 -380 104
l-144 7 109 47 c133 58 277 149 350 223 149 148 137 305 -34 466 -75 71 -140
105 -236 126 -175 37 -407 -28 -631 -178 -91 -61 -146 -79 -270 -86 -214 -13
-351 62 -469 257 -42 70 -62 92 -114 127 -120 81 -306 116 -505 95 -246 -26
-433 -112 -467 -218 -21 -63 -1 -96 151 -246 135 -133 165 -176 140 -201 -16
-16 -91 4 -250 67 -213 85 -297 93 -364 38 l-31 -27 28 50 c113 196 271 402
426 556 276 273 588 443 925 503 107 19 356 20 470 1z"/>
<path d="M1530 13903 c0 -45 27 -159 49 -208 152 -344 666 -633 1351 -759 276
-51 400 -61 770 -61 273 0 375 4 490 18 288 36 562 96 775 171 55 19 102 33
104 30 2 -2 -4 -13 -15 -25 -17 -19 -19 -38 -19 -188 0 -193 16 -280 71 -390
40 -80 133 -174 210 -212 177 -86 274 48 291 403 l6 127 31 -72 c111 -254 227
-406 353 -464 104 -48 215 -16 328 92 69 67 111 133 137 218 17 58 20 86 16
175 -8 164 -70 331 -184 498 -53 77 -71 125 -84 232 -19 149 23 302 110 396
l43 46 -2417 0 -2416 0 0 -27z"/>
<path d="M8170 13913 c106 -23 397 -28 520 -9 57 9 106 19 109 21 2 3 -153 4
-345 4 -329 -1 -345 -2 -284 -16z"/>
<path d="M0 12991 c0 -32 4 -41 18 -41 47 -1 236 -31 307 -50 561 -148 1075
-652 1378 -1350 432 -995 420 -2242 -31 -3229 -85 -186 -88 -188 -84 -77 7
186 -80 428 -212 593 -120 148 -238 223 -366 231 -71 4 -79 2 -142 -31 -38
-20 -68 -34 -68 -32 0 2 14 34 31 72 120 267 208 640 250 1058 16 155 16 615
0 770 -48 472 -136 817 -292 1144 -87 181 -161 292 -268 404 -146 151 -282
223 -443 235 l-78 5 0 -2385 0 -2384 44 -46 c24 -26 60 -75 80 -110 98 -176
267 -246 565 -235 198 7 341 46 454 124 70 49 96 127 63 191 -8 15 -69 81
-136 147 -123 122 -166 176 -155 195 17 27 105 5 311 -79 155 -63 264 -67 320
-13 l28 27 -29 -50 c-207 -366 -521 -695 -831 -873 -204 -116 -410 -182 -651
-207 l-63 -7 0 -40 0 -40 67 7 c347 33 673 171 956 404 65 53 223 208 306 301
l32 35 -19 -40 c-55 -115 -111 -305 -133 -450 -17 -111 -14 -341 5 -455 18
-112 56 -246 98 -350 16 -41 33 -82 36 -90 3 -8 -44 32 -104 90 -248 240 -517
394 -818 470 -118 30 -265 50 -366 50 l-60 0 0 -40 0 -40 63 0 c156 0 378 -45
542 -111 222 -89 424 -228 625 -429 1048 -1050 1193 -3196 303 -4513 -376
-557 -877 -877 -1415 -904 l-118 -6 0 -40 0 -40 118 6 c430 22 822 208 1167
553 785 785 1109 2218 794 3514 -64 263 -196 617 -306 820 l-47 85 90 -84
c287 -269 707 -507 1147 -650 1149 -373 2500 -215 3407 400 502 340 805 755
912 1252 32 149 32 446 -1 597 -111 517 -451 964 -994 1306 -140 89 -433 232
-599 294 -930 344 -2033 332 -2953 -32 -365 -144 -700 -357 -964 -613 l-134
-130 46 85 c107 200 230 533 296 801 141 577 157 1201 46 1805 -69 373 -210
778 -376 1079 -388 704 -944 1120 -1576 1180 l-73 7 0 -41z m4720 -3996 c800
-94 1482 -388 1946 -838 291 -281 461 -573 536 -921 29 -135 32 -415 4 -551
-111 -560 -522 -1048 -1169 -1390 -1014 -537 -2471 -551 -3499 -34 l-108 54
84 -3 c95 -4 203 15 331 58 196 66 392 225 468 380 29 58 32 73 32 156 0 85
-2 94 -33 144 -18 29 -27 50 -20 47 310 -130 532 -194 841 -241 254 -39 392
-49 677 -49 746 1 1405 173 1811 474 323 240 427 533 288 816 -141 289 -550
542 -1104 682 -721 181 -1605 152 -2262 -77 -62 -21 -113 -37 -113 -35 0 2 10
17 21 32 20 28 21 37 16 207 -5 199 -16 255 -72 370 -60 122 -203 234 -300
234 -123 0 -192 -157 -197 -443 0 -65 -4 -114 -8 -110 -4 4 -21 44 -39 88 -63
154 -169 317 -252 389 -139 118 -279 104 -428 -43 -131 -129 -175 -284 -137
-483 25 -130 95 -285 188 -419 95 -136 102 -370 16 -530 -38 -72 -101 -132
-194 -187 -116 -67 -173 -149 -211 -299 -23 -92 -23 -348 0 -450 31 -134 74
-231 131 -290 49 -50 55 -53 100 -53 65 0 92 19 200 136 93 100 178 174 201
174 39 0 20 -97 -56 -279 -82 -198 -89 -290 -26 -360 l22 -24 -40 23 c-569
333 -930 767 -1050 1261 -151 626 122 1264 748 1741 477 364 1131 594 1872
658 150 13 628 4 785 -15z"/>
<path d="M16645 13004 c-522 -81 -980 -405 -1342 -949 -297 -446 -489 -1012
-560 -1648 -23 -212 -23 -675 0 -887 56 -506 179 -937 383 -1343 l65 -129 -89
81 c-613 562 -1544 873 -2542 848 -344 -9 -598 -42 -905 -117 -1071 -263
-1830 -905 -2016 -1705 -26 -114 -37 -399 -20 -528 111 -833 915 -1552 2041
-1827 1298 -316 2730 12 3517 806 l111 113 -43 -82 c-285 -536 -442 -1256
-421 -1937 25 -834 263 -1572 690 -2140 88 -117 284 -321 391 -407 282 -227
588 -358 917 -393 151 -16 148 -16 148 28 l0 39 -127 12 c-636 62 -1204 520
-1567 1266 -506 1038 -498 2425 20 3457 43 85 64 115 44 62 -32 -83 13 -341
85 -493 114 -239 330 -421 502 -421 48 0 135 30 164 56 11 9 21 15 24 13 2 -3
-13 -45 -34 -95 -165 -382 -253 -876 -254 -1414 0 -286 10 -423 49 -680 114
-741 432 -1320 801 -1460 75 -29 186 -45 246 -36 l47 7 0 2363 0 2362 -50 38
c-28 22 -70 69 -96 109 -26 40 -58 89 -71 109 -49 72 -165 133 -305 158 -77
14 -279 14 -361 0 -166 -29 -325 -103 -367 -172 -23 -39 -26 -98 -6 -136 8
-15 71 -82 140 -149 122 -119 164 -173 150 -195 -13 -20 -103 0 -242 56 -170
67 -202 76 -277 76 -43 0 -70 -6 -93 -20 l-33 -20 27 47 c16 27 58 93 95 148
365 549 868 877 1395 912 l94 6 0 40 0 40 -102 -7 c-457 -30 -903 -272 -1261
-686 l-56 -65 38 91 c47 109 84 228 108 349 22 113 25 422 4 535 -18 99 -74
286 -111 367 -17 36 -30 68 -30 71 0 3 44 -37 98 -89 323 -316 671 -487 1072
-529 109 -11 201 -13 224 -4 11 4 16 19 16 43 l0 36 -128 1 c-525 6 -1039 313
-1418 849 -547 771 -752 1901 -539 2961 256 1268 1068 2144 1987 2144 l98 0 0
40 0 40 -117 -1 c-65 -1 -158 -7 -208 -15z m-3679 -4114 c408 -32 796 -116
1130 -245 108 -41 398 -175 391 -181 -1 -1 -24 2 -52 6 -163 25 -464 -72 -630
-204 -227 -180 -303 -396 -193 -547 17 -23 24 -39 17 -36 -248 105 -433 163
-674 212 -514 103 -1055 110 -1581 20 -684 -118 -1228 -417 -1379 -759 -57
-129 -63 -267 -18 -399 38 -109 88 -183 194 -289 579 -573 2107 -763 3184
-394 55 18 109 37 119 42 18 7 18 5 -3 -25 -20 -28 -24 -49 -29 -139 -12 -272
61 -491 202 -600 125 -96 212 -107 277 -33 62 70 97 218 99 421 1 77 3 90 12
70 94 -217 160 -330 251 -427 141 -151 289 -153 447 -6 116 107 163 215 162
373 -1 164 -65 343 -187 525 -64 95 -85 169 -85 305 0 191 82 333 242 424 116
65 164 124 203 248 84 266 19 688 -126 811 -87 75 -134 59 -293 -104 -122
-125 -187 -176 -207 -164 -21 14 -2 101 55 243 67 171 76 202 76 278 0 48 -5
69 -24 97 l-24 35 36 -21 c88 -50 244 -155 322 -215 104 -81 292 -263 370
-357 183 -224 315 -494 365 -747 23 -113 30 -341 16 -453 -49 -377 -232 -720
-547 -1025 -720 -698 -1956 -1013 -3153 -805 -679 118 -1296 415 -1703 818
-358 354 -538 750 -539 1184 0 217 37 400 120 592 329 764 1257 1330 2386
1455 77 9 165 17 195 19 134 8 458 6 576 -3z"/>
<path d="M16840 12664 c-607 -160 -1019 -1356 -894 -2594 32 -316 90 -589 178
-835 19 -52 32 -95 30 -95 -3 0 -18 10 -34 21 -27 21 -36 21 -207 16 -192 -5
-272 -21 -376 -74 -109 -55 -227 -211 -227 -301 0 -76 66 -134 191 -167 61
-17 307 -40 344 -32 14 2 22 0 19 -4 -3 -5 -10 -9 -15 -9 -21 0 -238 -108
-306 -152 -207 -134 -280 -290 -205 -437 34 -68 140 -177 208 -213 203 -109
490 -60 769 133 177 122 452 114 612 -17 l43 -35 0 2405 0 2406 -37 -1 c-21 0
-63 -7 -93 -15z"/>
<path d="M8295 6119 c-391 -38 -770 -231 -1090 -553 -293 -296 -537 -704 -692
-1161 -87 -257 -153 -549 -188 -835 -22 -179 -31 -631 -16 -825 42 -553 192
-1097 418 -1514 l45 -85 -88 83 c-120 112 -306 251 -462 344 -1361 812 -3411
640 -4456 -373 -347 -337 -538 -709 -581 -1132 l-7 -68 40 0 41 0 6 58 c23
205 74 382 158 551 268 535 827 966 1562 1204 975 316 2121 240 2994 -198 110
-55 146 -79 74 -48 -87 36 -342 -10 -508 -91 -169 -84 -337 -247 -386 -376
-32 -85 -25 -190 18 -258 18 -29 30 -52 28 -52 -3 0 -44 16 -92 36 -267 111
-555 184 -918 231 -114 15 -209 18 -510 18 -327 0 -389 -3 -535 -23 -511 -70
-922 -205 -1220 -402 -137 -91 -283 -241 -338 -346 -45 -88 -72 -182 -72 -256
l0 -48 2385 0 2385 0 53 43 c30 24 79 58 109 75 145 83 214 225 225 468 15
325 -108 624 -257 624 -48 0 -65 -12 -215 -160 -139 -137 -179 -165 -196 -139
-17 27 -7 60 103 344 42 108 45 216 9 266 l-25 33 50 -28 c253 -146 516 -364
681 -567 219 -269 355 -581 381 -874 l7 -80 40 -3 41 -3 -7 83 c-14 156 -65
351 -130 495 l-30 66 108 -104 c348 -335 725 -509 1144 -526 171 -7 294 6 454
47 317 82 582 243 862 525 l152 154 -24 -55 c-39 -89 -94 -266 -110 -361 -9
-48 -19 -141 -22 -205 l-6 -118 41 0 42 0 0 68 c0 231 78 512 203 731 89 155
185 278 327 421 476 479 1175 784 2013 877 210 23 656 23 867 0 391 -43 774
-138 1095 -271 243 -101 541 -276 735 -433 113 -91 270 -248 352 -353 218
-281 333 -565 360 -897 l11 -143 39 0 c36 0 38 1 38 33 0 63 -21 253 -36 327
-121 584 -578 1105 -1269 1445 -541 267 -1090 388 -1755 389 -496 0 -874 -59
-1310 -204 -489 -162 -886 -398 -1199 -711 l-103 -104 56 113 c185 370 304
772 367 1237 26 193 37 679 20 888 -56 675 -255 1278 -584 1772 -433 650
-1066 997 -1702 934z m286 -79 c369 -37 703 -201 1007 -495 475 -459 782
-1123 893 -1935 30 -222 38 -697 15 -937 -47 -494 -175 -952 -377 -1355 -27
-54 -51 -98 -53 -98 -2 0 3 19 11 43 38 106 -29 398 -128 563 -76 126 -209
258 -307 305 -110 51 -204 49 -295 -5 l-55 -33 43 102 c159 378 241 811 252
1325 6 272 -4 468 -37 702 -98 700 -367 1265 -700 1470 -113 70 -185 92 -305
92 -78 0 -114 -5 -165 -23 -429 -149 -768 -820 -862 -1711 -20 -192 -17 -727
6 -915 34 -288 97 -576 171 -781 19 -55 35 -103 35 -108 0 -5 -11 1 -25 14
-22 21 -36 23 -147 27 -264 10 -462 -52 -575 -181 -90 -102 -120 -206 -78
-269 46 -71 188 -115 403 -124 l143 -6 -92 -38 c-179 -74 -346 -186 -414 -279
-100 -136 -81 -261 61 -405 210 -214 523 -198 891 45 87 57 170 80 295 80 199
0 336 -81 434 -256 76 -136 197 -201 416 -224 325 -33 678 100 678 257 0 45
-37 94 -157 208 -112 106 -153 157 -153 190 0 27 76 15 190 -29 229 -90 258
-98 336 -94 61 3 77 7 100 28 l27 25 -18 -35 c-77 -150 -265 -400 -420 -555
-369 -371 -785 -550 -1235 -532 -292 12 -543 95 -801 265 -628 414 -1062 1227
-1186 2224 -26 206 -26 774 0 973 105 807 388 1461 832 1923 259 270 545 445
850 523 178 44 324 56 496 39z"/>
<path d="M964 6030 c-127 -33 -250 -92 -371 -177 -141 -99 -416 -103 -556 -8
l-37 26 0 -2386 0 -2385 27 6 c86 19 115 30 187 67 99 51 237 180 325 304 78
108 194 341 250 498 141 397 204 799 204 1295 0 516 -75 965 -229 1365 -6 17
-4 17 20 -5 27 -25 30 -25 204 -25 193 1 269 15 391 72 109 51 231 212 231
303 0 116 -142 182 -427 196 l-133 7 78 32 c225 93 398 221 457 338 34 70 35
154 0 223 -56 113 -179 216 -303 254 -83 26 -220 26 -318 0z"/>
<path d="M10791 1584 c-86 -43 -183 -146 -228 -240 -35 -74 -38 -86 -41 -190
-3 -90 0 -127 17 -195 26 -98 99 -253 170 -359 61 -91 81 -167 81 -307 0 -106
-25 -200 -69 -262 l-22 -31 2380 0 2381 0 0 25 c0 42 -39 146 -82 220 -55 93
-199 235 -318 314 -376 248 -938 403 -1562 430 -566 24 -1124 -56 -1562 -225
-17 -6 -16 -3 5 25 21 29 24 45 28 143 6 189 -28 362 -94 474 -59 101 -203
204 -285 204 -117 0 -184 -145 -197 -423 l-6 -139 -22 54 c-69 169 -164 324
-247 405 -72 70 -127 97 -208 101 -55 3 -73 -1 -119 -24z"/>
</g>
</svg>
